<svg xmlns="http://www.w3.org/2000/svg" viewBox="0 0 120 120" fill="none">
  <!-- Marca Aurela: um arco de amanhecer (aurora) abraçando uma pétala minimalista -->
  <circle cx="60" cy="60" r="58" stroke="currentColor" stroke-width="2" opacity="0.15"/>
  <path d="M60 22c-14 10-22 24-22 38 0 12.15 9.85 22 22 22s22-9.85 22-22c0-14-8-28-22-38z"
        fill="currentColor" opacity="0.92"/>
  <path d="M60 40c-7 7-11 15-11 22a11 11 0 0 0 22 0c0-7-4-15-11-22z" fill="var(--logo-bg,#FFF9FB)"/>
  <path d="M32 78c8 12 16 18 28 18s20-6 28-18" stroke="currentColor" stroke-width="3" stroke-linecap="round" opacity="0.55"/>
</svg>
